<?xml version="1.0" encoding="UTF-8"?>
<!DOCTYPE svg PUBLIC "-//W3C//DTD SVG 1.1//EN" "http://www.w3.org/Graphics/SVG/1.1/DTD/svg11.dtd">
<!-- Creator: CorelDRAW -->
<svg xmlns="http://www.w3.org/2000/svg" xml:space="preserve" width="6.28in" height="5.865in" version="1.1" shape-rendering="geometricPrecision" text-rendering="geometricPrecision" image-rendering="optimizeQuality" fill-rule="evenodd" clip-rule="evenodd"
viewBox="0 0 6280 5865"
 xmlns:xlink="http://www.w3.org/1999/xlink"
 xmlns:xodm="http://www.corel.com/coreldraw/odm/2003">
 <g id="Layer_x0020_1">
  <metadata id="CorelCorpID_0Corel-Layer"/>
  <path fill="black" d="M2976.52 11.48c-86.82,0 -276.89,73 -338.03,103.65 -93.41,46.82 -192.22,109.58 -264.45,177.22 -145.5,136.26 -281.75,324.65 -341,544.96 -76.2,283.38 -45.31,507.95 44.44,750.11 38.47,103.82 103.91,193.94 151.53,290.14 46.4,93.73 112.7,189.87 160.43,283.87 49.06,96.63 111.83,190.59 157.63,284.05 47.27,96.47 110.47,188.32 157.6,284.07 23.29,47.32 54.39,92.63 78.4,141.13 20.62,41.66 54.47,101.72 79.54,142.6 27.05,44.11 51.97,96.84 80.48,141.66 23.26,36.55 61.2,105.43 79.67,142.48 48.38,97.07 110.25,188.68 157.62,284.06 47.73,96.1 115.94,182.02 115.02,326.65 -1.68,266.06 -169.8,448.1 -378.44,507.58 -138.9,39.6 -267.15,11.65 -384.78,-21.39 -122.33,-34.36 -186.62,-88.25 -281.21,-160.46 -34.91,-26.65 -82.48,-76.3 -107.68,-111.85 -21.98,-31.01 -71.22,-104.81 -94.54,-127.6 -34.72,-33.92 -65.39,-85.04 -106.16,-115.98 -43.06,-32.68 -76.74,-66.87 -122.76,-99.39 -609.07,-430.45 -1441.2,-185.67 -1730.26,495.94 -21.11,49.77 -39.8,109.78 -53.72,165.81l-27.58 137.07c-2.62,17.77 1.52,38.03 -2.2,55.29 -20.24,93.88 15.22,328.62 39.4,397.55 18.66,53.17 33.85,111.17 58.78,160.75 72.67,144.5 153.31,278.05 282.18,381.64 43.66,35.09 73,64.07 122.46,97.07 39.52,26.35 96.05,61.69 139.95,82.2 64.28,30.02 256.58,102.84 341.45,102.84l0 10.45 329.3 0 0 -10.45c78.7,-1.76 221.23,-57.26 284.33,-81.55 85.51,-32.93 163.26,-84.35 233.16,-132.72 69.51,-48.1 131.81,-114.76 189.53,-176.36 43.86,-46.8 116.33,-157.88 148.41,-217.48 31.43,-58.4 117.84,-153.48 165.13,-200.76 73.07,-73.07 120.13,-101.77 206.7,-159.19 56.23,-37.29 186.84,-84.46 264.49,-101.39 285.13,-62.18 711.3,-41.41 938.7,92.09 311.41,182.82 383.68,467.6 508.36,589.3 66.42,64.83 111.54,119.52 189.98,175.9 98.54,70.83 244.54,149.5 369.1,179.73 34.99,8.5 115,32.44 150.51,32.44l0 10.45 329.3 0 0 -10.45c52.89,-1.18 148.3,-34.05 194.57,-48.48 168.01,-52.43 331.05,-156.72 453.58,-278.19 92.07,-91.27 192.2,-236.95 243.22,-363.1 26.31,-65.04 80.84,-222.17 80.84,-287.66l10.45 0 0 -329.3 -10.45 0c-0.82,-36.83 -33.18,-155.05 -44.41,-188.19 -31.26,-92.22 -100.26,-236.89 -151.06,-316.74 -26.26,-41.27 -63.69,-106 -85,-150.22 -24.37,-50.56 -56.69,-99.72 -82.73,-149.87 -12.82,-24.69 -29.69,-48.26 -42.75,-74.86 -10.62,-21.61 -29.55,-57.97 -41.45,-76.16 -25.24,-38.54 -64.96,-110.19 -84.94,-150.27 -25.28,-50.72 -56.52,-103.47 -83.56,-151.65 -112.51,-200.49 -222.67,-401.83 -334.52,-601.09 -54.44,-96.98 -119.57,-201.18 -168.09,-299.73 -49.29,-100.14 -116.09,-201.46 -169.12,-301.3 -27.12,-51.06 -56.95,-98.4 -82.65,-149.95 -41.79,-83.83 -89.62,-150.75 -125.57,-224.63 -12.23,-25.13 -28.97,-49.4 -42.69,-74.92 -27.5,-51.16 -58.22,-100.78 -83.53,-151.68 -22.79,-45.83 -56.15,-105.68 -82.99,-149.61 -27.97,-45.77 -55.01,-105.2 -84.68,-150.53 -59.54,-90.95 -108.56,-210.9 -168.25,-302.18 -30.31,-46.35 -53.61,-101.67 -83.67,-148.92 -28.57,-44.89 -57.78,-103.35 -83.99,-151.22 -22.61,-41.3 -63.69,-107.07 -93.13,-139.46 -33.8,-37.19 -71.55,-94.35 -109.98,-125.24 -44.5,-35.77 -79.34,-71.41 -127.98,-104.62 -50.26,-34.32 -89.04,-60.17 -146.28,-88.93 -56.93,-28.61 -99.74,-47.57 -165.33,-69.88 -37.44,-12.73 -146.81,-45.11 -190.1,-45.11l0 -10.45 -334.52 0 0 10.45z"/>
 </g>
</svg>
